<svg width="20" height="20" viewBox="0 0 20 20" fill="none" xmlns="http://www.w3.org/2000/svg">
<path d="M9.60064 5.2V7.6C9.60064 8.04183 9.95881 8.4 10.4006 8.4H12.8006M14.4006 2H8.80045C7.9168 2 7.20046 2.71634 7.20045 3.59999V5.2M14.4006 2H14.8469C15.0722 2 15.2867 2.09489 15.4419 2.25819C15.6751 2.50359 16.0446 2.88143 16.4006 3.2C16.6797 3.44968 17.1181 3.89776 17.3806 4.17009C17.5226 4.31736 17.6006 4.514 17.6006 4.71856L17.6006 5.2M14.4006 2V4.4C14.4006 4.84183 14.7588 5.2 15.2006 5.2H17.6006M17.6006 5.2L17.6004 13.2C17.6004 14.0837 16.8841 14.8 16.0004 14.8H12.8004M11.6006 6.4C11.2446 6.08143 10.8751 5.70359 10.6419 5.45819C10.4867 5.29489 10.2722 5.2 10.0469 5.2H4.00045C3.1168 5.2 2.40046 5.91634 2.40045 6.79999L2.40039 16.4C2.40038 17.2836 3.11673 18 4.00038 18L11.2004 18C12.0841 18 12.8004 17.2837 12.8004 16.4L12.8006 7.91856C12.8006 7.714 12.7226 7.51736 12.5806 7.37009C12.3181 7.09777 11.8797 6.64968 11.6006 6.4Z" stroke="#B2B2CB" stroke-width="1.5" stroke-linecap="round" stroke-linejoin="round"/>
</svg>
