<svg width="28" height="28" viewBox="0 0 28 28" fill="none" xmlns="http://www.w3.org/2000/svg">
<rect width="28" height="28" rx="8" fill="#E6E6ED"/>
<path d="M19.6273 11.1673H8.37402M15.6673 13.6673C14.2842 13.6673 12.334 13.6673 12.334 13.6673M19.6673 11.5017V18.2507C19.6673 19.0331 19.0331 19.6673 18.2507 19.6673H9.75065C8.96825 19.6673 8.33398 19.0331 8.33398 18.2507V11.5017C8.33398 11.2818 8.38519 11.0649 8.48355 10.8682L9.45698 8.92132C9.63696 8.56136 10.0049 8.33398 10.4073 8.33398H17.594C17.9964 8.33398 18.3643 8.56136 18.5443 8.92132L19.5178 10.8682C19.6161 11.0649 19.6673 11.2818 19.6673 11.5017Z" stroke="#0D0D1E" stroke-width="1.5" stroke-linecap="round" stroke-linejoin="round"/>
</svg>
