<svg width="40" height="40" viewBox="0 0 40 40" fill="none" xmlns="http://www.w3.org/2000/svg">
<rect width="40" height="40" rx="14" fill="#59597B"/>
<path d="M17.325 17.5609C18.0534 17.0416 18.9148 16.7695 19.8187 16.7686C20.7226 16.7677 21.581 17.0403 22.3107 17.5558M15.3791 15.4244C16.6764 14.5026 18.2135 14.0157 19.8191 14.0117C21.4271 14.0101 22.9608 14.4961 24.2563 15.4154M12.0162 25.2234C12.0162 25.2234 12.0269 24.0293 12.0011 23.7082C11.985 23.2111 12.1471 22.8065 12.5186 22.4351C12.5543 22.3994 12.5924 22.3613 12.6305 22.3279C13.3828 21.6659 14.3156 21.2844 15.0438 21.0267C17.0425 20.3301 19.1503 20.0711 21.3052 20.2592C23.0937 20.4238 24.5396 20.7839 25.8686 21.3939C26.6818 21.7641 27.2237 22.1441 27.6228 22.6147C27.8771 22.9165 28.0004 23.2542 28 23.649L27.9983 25.2713C27.991 25.4973 27.9266 25.6805 27.8051 25.8019C27.6551 25.9519 27.4434 25.9831 27.2911 25.9832C27.2864 25.9832 27.2816 25.9832 27.2769 25.9832C26.9962 25.993 26.7179 25.9909 26.4229 25.9865C26.2731 25.9843 26.1208 25.9844 25.9662 25.9822L24.6675 25.9835C24.1632 25.984 23.9303 25.7512 23.9309 25.2469C23.931 25.1089 23.9288 24.9733 23.9313 24.8378C23.9269 24.4334 23.9266 24.7473 23.9484 24.3548C23.9484 24.3453 23.9508 24.3382 23.9484 24.331C23.9489 23.9219 23.7112 23.7604 23.5329 23.6678C23.5234 23.6631 23.5138 23.6583 23.5043 23.6536C22.9266 23.4139 22.3035 23.2671 21.483 23.1704L21.4782 23.1704C20.0131 23.0197 18.6905 23.0829 17.4438 23.3648C17.2844 23.4007 17.1345 23.4508 16.9917 23.4985C16.8632 23.5414 16.7419 23.582 16.6301 23.6083C16.6158 23.613 16.5991 23.6154 16.5849 23.6202C16.4635 23.6608 16.3683 23.718 16.2897 23.7965C16.0921 23.9942 16.0918 24.2415 16.0918 24.3224L16.0908 25.2549C16.0906 25.4167 16.0595 25.6427 15.9095 25.7927C15.7618 25.9403 15.5477 25.9691 15.3931 25.9621C15.3884 25.9621 15.3884 25.9621 15.3836 25.9621L12.7623 25.9648C12.2747 25.9677 12.0162 25.2234 12.0162 25.2234Z" stroke="white" stroke-width="1.5" stroke-linecap="round" stroke-linejoin="round"/>
</svg>
