<svg width="64" height="64" viewBox="0 0 64 64" fill="none" xmlns="http://www.w3.org/2000/svg">
<rect width="64" height="64" rx="32" fill="#078769"/>
<path d="M31.3602 24.3192V28.1592C31.3602 28.8661 31.9333 29.4392 32.6402 29.4392H36.4802M39.0402 19.1992H30.0799C28.6661 19.1992 27.52 20.3454 27.5199 21.7592V24.3192M39.0402 19.1992H39.7543C40.1148 19.1992 40.4579 19.351 40.7062 19.6123C41.0794 20.005 41.6706 20.6095 42.2402 21.1192C42.6867 21.5187 43.3882 22.2356 43.8082 22.6714C44.0354 22.907 44.1602 23.2216 44.1602 23.5489L44.1602 24.3192M39.0402 19.1992V23.0392C39.0402 23.7461 39.6133 24.3192 40.3202 24.3192H44.1602M44.1602 24.3192L44.1599 37.1193C44.1599 38.5331 43.0137 39.6792 41.5999 39.6792H36.4798M34.5602 26.2392C33.9906 25.7295 33.3994 25.125 33.0262 24.7323C32.7779 24.471 32.4348 24.3192 32.0743 24.3192H22.3999C20.9861 24.3192 19.84 25.4654 19.8399 26.8792L19.8398 42.2391C19.8398 43.653 20.986 44.7992 22.3998 44.7992L33.9199 44.7992C35.3337 44.7992 36.4799 43.6531 36.4799 42.2393L36.4802 28.6689C36.4802 28.3416 36.3554 28.027 36.1282 27.7914C35.7082 27.3556 35.0067 26.6387 34.5602 26.2392Z" stroke="white" stroke-width="3" stroke-linecap="round" stroke-linejoin="round"/>
</svg>
