<svg width="32" height="32" viewBox="0 0 32 32" fill="none" xmlns="http://www.w3.org/2000/svg">
<g clip-path="url(#clip0_302_61800)">
<path fill-rule="evenodd" clip-rule="evenodd" d="M16 0C24.8366 0 32 7.16344 32 16C32 23.9859 26.1491 30.6053 18.5 31.8056V20.625H22.2281L22.9375 16H18.5V13C18.5 11.8126 19.0449 10.6543 20.7507 10.5142C20.8644 10.5048 20.9833 10.5 21.1075 10.5H23.125V6.5625C23.125 6.5625 22.9869 6.53894 22.7503 6.50475C22.2868 6.43778 21.4454 6.33005 20.5238 6.27884C20.2026 6.26099 19.8716 6.25 19.5434 6.25C15.8888 6.25 13.5 8.465 13.5 12.475V16H9.4375V20.625H13.5V31.8056C5.85094 30.6053 0 23.9859 0 16C0 7.16344 7.16344 0 16 0Z" fill="white"/>
</g>
<defs>
<clipPath id="clip0_302_61800">
<rect width="32" height="32" fill="white"/>
</clipPath>
</defs>
</svg>
