<svg width="131" height="99" viewBox="0 0 131 99" fill="none" xmlns="http://www.w3.org/2000/svg">
<path opacity="0.06" d="M103.095 99C95.3432 99 88.7544 96.3243 83.3284 90.973C77.9024 85.6216 75.1893 79.1236 75.1893 71.4788C75.1893 70.2046 75.3185 67.2741 75.5769 62.6873C75.8353 57.8456 76.998 52.112 79.0651 45.4865C81.3905 38.861 85.0079 31.5985 89.9172 23.6988C95.0848 15.5444 102.449 7.64479 112.009 0H130.225C125.057 5.09653 120.665 10.1931 117.047 15.2896C113.688 20.3861 110.846 25.1004 108.521 29.4324C105.937 34.2741 104.128 39.1158 103.095 43.9575C110.846 43.9575 117.435 46.6332 122.861 51.9846C128.287 57.3359 131 63.834 131 71.4788C131 79.1236 128.287 85.6216 122.861 90.973C117.435 96.3243 110.846 99 103.095 99ZM27.9053 99C20.1538 99 13.5651 96.3243 8.13905 90.973C2.71302 85.6216 0 79.1236 0 71.4788C0 70.2046 0.129191 67.2741 0.387574 62.6873C0.645957 57.8456 1.80868 52.112 3.87574 45.4865C5.9428 38.861 9.43097 31.5985 14.3402 23.6988C19.5079 15.5444 26.8718 7.64479 36.432 0H54.6479C49.4803 5.09653 45.0878 10.1931 41.4704 15.2896C38.1114 20.3861 35.3984 25.1004 33.3314 29.4324C30.7475 34.2741 28.9389 39.1158 27.9053 43.9575C35.6568 43.9575 42.1164 46.6332 47.284 51.9846C52.7101 57.3359 55.4231 63.834 55.4231 71.4788C55.4231 79.1236 52.7101 85.6216 47.284 90.973C42.1164 96.3243 35.6568 99 27.9053 99Z" fill="#0D0D1E"/>
</svg>
