<svg width="40" height="40" viewBox="0 0 40 40" fill="none" xmlns="http://www.w3.org/2000/svg">
<rect x="0.5" y="0.5" width="39" height="39" rx="9.5" fill="white"/>
<path d="M14.9107 22.8568C13.5793 22.8568 12.5 22.0236 12.5 20.802C12.5 19.5803 13.5793 18.59 14.9107 18.59C15.0013 18.59 15.0906 18.5946 15.1786 18.6035V18.59H15.2117C15.1898 18.4289 15.1786 18.2649 15.1786 18.0984C15.1786 15.9266 17.0974 14.166 19.4643 14.166C21.0671 14.166 22.4644 14.9734 23.1996 16.169C23.3792 16.1448 23.563 16.1322 23.75 16.1322C25.8211 16.1322 27.5 17.6727 27.5 19.5731C27.5 21.1374 26.3623 22.3299 24.8047 22.723M19.8816 25.8327V20.1875M19.8816 20.1875L17.4219 22.5157M19.8816 20.1875L22.3437 22.5157" stroke="#0D0D1E" stroke-width="1.5" stroke-linecap="round" stroke-linejoin="round"/>
<rect x="0.5" y="0.5" width="39" height="39" rx="9.5" stroke="#D1D1E2"/>
</svg>
