<svg width="18" height="18" viewBox="0 0 18 18" fill="none" xmlns="http://www.w3.org/2000/svg">
<path d="M2.25 7.06204C2.25 6.78499 2.39101 6.52508 2.62843 6.36452L8.47843 2.40838C8.79069 2.19721 9.20931 2.19721 9.52157 2.40838L15.3716 6.36452C15.609 6.52508 15.75 6.78499 15.75 7.06204V14.4662C15.75 15.1752 15.1456 15.75 14.4 15.75H3.6C2.85442 15.75 2.25 15.1752 2.25 14.4662V7.06204Z" stroke="#8B8BA9" stroke-width="1.5"/>
<path d="M10.6875 9.84375C10.6875 10.7757 9.93198 11.5312 9 11.5312C8.06802 11.5312 7.3125 10.7757 7.3125 9.84375C7.3125 8.91177 8.06802 8.15625 9 8.15625C9.93198 8.15625 10.6875 8.91177 10.6875 9.84375Z" stroke="#8B8BA9" stroke-width="1.5"/>
</svg>

