<svg width="28" height="28" viewBox="0 0 28 28" fill="none" xmlns="http://www.w3.org/2000/svg">
<rect width="28" height="28" rx="8" fill="#E6E6ED"/>
<path d="M18.7996 15.123C19.6445 15.7543 20.3996 17.3437 20.3996 18.323C20.3996 18.6281 20.177 18.8754 19.9024 18.8754H19.5996M16.3996 12.5356C16.9462 12.2194 17.3139 11.6284 17.3139 10.9516C17.3139 10.2748 16.9462 9.68385 16.3996 9.36768M8.09679 18.8754H16.8548C17.1294 18.8754 17.352 18.6281 17.352 18.323C17.352 16.4053 15.7498 14.8506 12.4758 14.8506C9.20179 14.8506 7.59961 16.4053 7.59961 18.323C7.59961 18.6281 7.8222 18.8754 8.09679 18.8754ZM14.3044 10.9516C14.3044 11.9615 13.4857 12.7802 12.4758 12.7802C11.4659 12.7802 10.6472 11.9615 10.6472 10.9516C10.6472 9.94173 11.4659 9.12305 12.4758 9.12305C13.4857 9.12305 14.3044 9.94173 14.3044 10.9516Z" stroke="#0D0D1E" stroke-width="1.5" stroke-linecap="round"/>
</svg>
