<svg width="28" height="28" viewBox="0 0 28 28" fill="none" xmlns="http://www.w3.org/2000/svg">
<rect width="28" height="28" rx="8" fill="#E6E6ED"/>
<g clip-path="url(#clip0_1_4874)">
<path d="M15.1708 12.6819C15.3063 13.0733 15.7334 13.2809 16.1249 13.1454C16.5163 13.01 16.7238 12.5828 16.5884 12.1914L15.1708 12.6819ZM14.7996 11.6218L14.8326 10.8726C14.8216 10.8721 14.8106 10.8718 14.7996 10.8718V11.6218ZM13.1996 14.0663V14.8163V14.0663ZM14.7996 16.5107V17.2607V16.5107ZM13.1996 16.5107L13.1667 17.26C13.1776 17.2605 13.1886 17.2607 13.1996 17.2607V16.5107ZM12.8284 15.4506C12.6929 15.0592 12.2658 14.8517 11.8744 14.9871C11.4829 15.1226 11.2754 15.5497 11.4108 15.9412L12.8284 15.4506ZM14.7496 10.3996C14.7496 9.98539 14.4138 9.64961 13.9996 9.64961C13.5854 9.64961 13.2496 9.98539 13.2496 10.3996H14.7496ZM13.2496 11.6218C13.2496 12.036 13.5854 12.3718 13.9996 12.3718C14.4138 12.3718 14.7496 12.036 14.7496 11.6218H13.2496ZM14.7496 16.5107C14.7496 16.0965 14.4138 15.7607 13.9996 15.7607C13.5854 15.7607 13.2496 16.0965 13.2496 16.5107H14.7496ZM13.2496 17.7329C13.2496 18.1472 13.5854 18.4829 13.9996 18.4829C14.4138 18.4829 14.7496 18.1472 14.7496 17.7329H13.2496ZM16.5884 12.1914C16.4606 11.822 16.2264 11.4979 15.9138 11.2621L15.0104 12.4595C15.0828 12.5141 15.1394 12.5911 15.1708 12.6819L16.5884 12.1914ZM15.9138 11.2621C15.6011 11.0261 15.2245 10.8898 14.8326 10.8726L14.7667 12.3711C14.8533 12.3749 14.9382 12.405 15.0104 12.4595L15.9138 11.2621ZM14.7996 10.8718H13.1996V12.3718H14.7996V10.8718ZM13.1996 10.8718C12.6779 10.8718 12.1805 11.083 11.8159 11.4544L12.8863 12.5053C12.9717 12.4182 13.0847 12.3718 13.1996 12.3718V10.8718ZM11.8159 11.4544C11.4518 11.8252 11.2496 12.3254 11.2496 12.8441H12.7496C12.7496 12.7144 12.8003 12.5928 12.8863 12.5053L11.8159 11.4544ZM11.2496 12.8441C11.2496 13.3627 11.4518 13.8629 11.8159 14.2337L12.8863 13.1829C12.8003 13.0953 12.7496 12.9737 12.7496 12.8441H11.2496ZM11.8159 14.2337C12.1805 14.6051 12.678 14.8163 13.1996 14.8163V13.3163C13.0847 13.3163 12.9717 13.2699 12.8863 13.1829L11.8159 14.2337ZM13.1996 14.8163H14.7996V13.3163H13.1996V14.8163ZM14.7996 14.8163C14.9145 14.8163 15.0275 14.8626 15.113 14.9497L16.1833 13.8988C15.8187 13.5275 15.3213 13.3163 14.7996 13.3163V14.8163ZM15.113 14.9497C15.1989 15.0372 15.2496 15.1589 15.2496 15.2885H16.7496C16.7496 14.7698 16.5474 14.2697 16.1833 13.8988L15.113 14.9497ZM15.2496 15.2885C15.2496 15.4181 15.1989 15.5397 15.113 15.6273L16.1833 16.6782C16.5474 16.3073 16.7496 15.8072 16.7496 15.2885H15.2496ZM15.113 15.6273C15.0275 15.7144 14.9145 15.7607 14.7996 15.7607V17.2607C15.3213 17.2607 15.8187 17.0495 16.1833 16.6782L15.113 15.6273ZM14.7996 15.7607H13.1996V17.2607H14.7996V15.7607ZM13.2326 15.7614C13.1459 15.7576 13.061 15.7275 12.9888 15.673L12.0854 16.8705C12.3982 17.1064 12.7747 17.2428 13.1667 17.26L13.2326 15.7614ZM12.9888 15.673C12.9165 15.6185 12.8598 15.5415 12.8284 15.4506L11.4108 15.9412C11.5386 16.3105 11.7728 16.6346 12.0854 16.8705L12.9888 15.673ZM13.2496 10.3996V11.6218H14.7496V10.3996H13.2496ZM13.2496 16.5107V17.7329H14.7496V16.5107H13.2496ZM19.6496 13.9996C19.6496 17.12 17.12 19.6496 13.9996 19.6496V21.1496C17.9484 21.1496 21.1496 17.9484 21.1496 13.9996H19.6496ZM13.9996 19.6496C10.8792 19.6496 8.34961 17.12 8.34961 13.9996H6.84961C6.84961 17.9484 10.0508 21.1496 13.9996 21.1496V19.6496ZM8.34961 13.9996C8.34961 10.8792 10.8792 8.34961 13.9996 8.34961V6.84961C10.0508 6.84961 6.84961 10.0508 6.84961 13.9996H8.34961ZM13.9996 8.34961C17.12 8.34961 19.6496 10.8792 19.6496 13.9996H21.1496C21.1496 10.0508 17.9484 6.84961 13.9996 6.84961V8.34961Z" fill="#0D0D1E"/>
</g>
<defs>
<clipPath id="clip0_1_4874">
<rect width="16" height="16" fill="white" transform="translate(6 6)"/>
</clipPath>
</defs>
</svg>
