<svg width="24" height="24" viewBox="0 0 24 24" fill="none" xmlns="http://www.w3.org/2000/svg">
<path d="M8.78849 9.07148C9.66257 8.44833 10.6962 8.12187 11.7809 8.12076C12.8655 8.11965 13.8956 8.44685 14.7713 9.06536M6.45337 6.50775C8.01015 5.40151 9.85468 4.81733 11.7814 4.8125C13.711 4.81053 15.5514 5.3938 17.106 6.49686M2.41787 18.2665C2.41787 18.2665 2.43075 16.8336 2.39975 16.4483C2.38038 15.8517 2.57497 15.3663 3.02071 14.9206C3.06357 14.8777 3.10929 14.832 3.155 14.792C4.0578 13.9975 5.17719 13.5397 6.05095 13.2305C8.44949 12.3946 10.9788 12.0837 13.5646 12.3094C15.7109 12.507 17.446 12.9391 19.0408 13.6711C20.0166 14.1154 20.6669 14.5714 21.1459 15.1361C21.4509 15.4983 21.5989 15.9034 21.5984 16.3773L21.5964 18.324C21.5876 18.5951 21.5103 18.815 21.3646 18.9607C21.1846 19.1407 20.9305 19.1781 20.7478 19.1783C20.7421 19.1783 20.7364 19.1783 20.7307 19.1783C20.3939 19.1901 20.0599 19.1876 19.706 19.1822C19.5261 19.1795 19.3435 19.1797 19.1579 19.1771L17.5994 19.1787C16.9943 19.1793 16.7149 18.8998 16.7155 18.2947C16.7156 18.1292 16.713 17.9665 16.716 17.8038C16.7108 17.3185 16.7104 17.6952 16.7365 17.2242C16.7366 17.2128 16.7394 17.2042 16.7366 17.1957C16.7371 16.7047 16.4518 16.5109 16.2379 16.3998C16.2265 16.3941 16.215 16.3884 16.2036 16.3827C15.5103 16.0951 14.7626 15.9189 13.778 15.8029L13.7723 15.8029C12.0142 15.622 10.4271 15.6979 8.93101 16.0362C8.73972 16.0792 8.55984 16.1393 8.38851 16.1966C8.23432 16.2481 8.0887 16.2968 7.95451 16.3284C7.93738 16.3341 7.9174 16.337 7.90026 16.3427C7.75464 16.3914 7.64039 16.46 7.5461 16.5543C7.30895 16.7914 7.30864 17.0883 7.30854 17.1853L7.3074 18.3043C7.3072 18.4984 7.26982 18.7696 7.08981 18.9496C6.91265 19.1268 6.65572 19.1613 6.4702 19.1529C6.46449 19.1529 6.46449 19.1529 6.45878 19.153L3.31324 19.1562C2.72809 19.1596 2.41787 18.2665 2.41787 18.2665Z" stroke="white" stroke-width="1.5" stroke-linecap="round" stroke-linejoin="round"/>
</svg>
