<svg width="18" height="18" viewBox="0 0 18 18" fill="none" xmlns="http://www.w3.org/2000/svg">
<path d="M14.4008 10.2646C15.3513 10.9748 16.2008 12.7629 16.2008 13.8646C16.2008 14.2078 15.9504 14.4861 15.6415 14.4861H15.3008M11.7008 7.35372C12.3157 6.99804 12.7294 6.33322 12.7294 5.57179C12.7294 4.81036 12.3157 4.14555 11.7008 3.78986M2.36011 14.4861H12.2129C12.5218 14.4861 12.7722 14.2078 12.7722 13.8646C12.7722 11.7071 10.9698 9.95819 7.28649 9.95819C3.60323 9.95819 1.80078 11.7071 1.80078 13.8646C1.80078 14.2078 2.0512 14.4861 2.36011 14.4861ZM9.34364 5.57179C9.34364 6.70792 8.42262 7.62893 7.28649 7.62893C6.15037 7.62893 5.22935 6.70792 5.22935 5.57179C5.22935 4.43566 6.15037 3.51465 7.28649 3.51465C8.42262 3.51465 9.34364 4.43566 9.34364 5.57179Z" stroke="#20C49D" stroke-width="1.5" stroke-linecap="round"/>
</svg>
