<svg width="40" height="40" viewBox="0 0 40 40" fill="none" xmlns="http://www.w3.org/2000/svg">
<rect x="0.5" y="0.5" width="39" height="39" rx="11.5" fill="white"/>
<path d="M22.4998 25.8327C22.4998 27.2134 21.3805 28.3327 19.9998 28.3327C18.6191 28.3327 17.4998 27.2134 17.4998 25.8327M21.4969 15.1981C21.8598 14.8232 22.0831 14.3124 22.0831 13.7493C22.0831 12.5988 21.1504 11.666 19.9998 11.666C18.8492 11.666 17.9164 12.5988 17.9164 13.7493C17.9164 14.3124 18.1398 14.8232 18.5027 15.1981M24.9998 19.3327C24.9998 18.1834 24.473 17.0812 23.5353 16.2686C22.5976 15.4559 21.3258 14.9993 19.9998 14.9993C18.6737 14.9993 17.4019 15.4559 16.4642 16.2686C15.5266 17.0812 14.9998 18.1834 14.9998 19.3327C14.9998 21.2342 14.5282 22.6248 13.9398 23.6199C13.2692 24.754 12.9339 25.3211 12.9472 25.4566C12.9623 25.6115 12.9902 25.6604 13.1159 25.7523C13.2257 25.8327 13.7777 25.8327 14.8816 25.8327H25.1179C26.2218 25.8327 26.7738 25.8327 26.8837 25.7523C27.0093 25.6604 27.0372 25.6115 27.0524 25.4566C27.0656 25.3211 26.7303 24.754 26.0597 23.6199C25.4713 22.6248 24.9998 21.2342 24.9998 19.3327Z" stroke="#0D0D1E" stroke-width="1.5" stroke-linecap="round" stroke-linejoin="round"/>
<rect x="0.5" y="0.5" width="39" height="39" rx="11.5" stroke="#B2B2CB"/>
</svg>
