<svg width="18" height="14" viewBox="0 0 18 14" fill="none" xmlns="http://www.w3.org/2000/svg">
<g clip-path="url(#clip0_17_7580)">
<path d="M9 19C15.6274 19 21 13.6274 21 7C21 0.372582 15.6274 -5 9 -5C2.37258 -5 -3 0.372582 -3 7C-3 13.6274 2.37258 19 9 19Z" fill="#F0F0F0"/>
<path d="M-0.518704 -0.306641C-1.46131 0.91975 -2.17208 2.33327 -2.58594 3.86884H3.65678L-0.518704 -0.306641Z" fill="#0052B4"/>
<path d="M20.5864 3.8688C20.1725 2.33327 19.4617 0.91975 18.5191 -0.306641L14.3438 3.8688H20.5864Z" fill="#0052B4"/>
<path d="M-2.58594 10.1289C-2.17203 11.6644 -1.46127 13.078 -0.518702 14.3043L3.65664 10.1289H-2.58594Z" fill="#0052B4"/>
<path d="M16.3063 -2.52061C15.0799 -3.46322 13.6664 -4.17398 12.1309 -4.58789V1.65479L16.3063 -2.52061Z" fill="#0052B4"/>
<path d="M1.69531 16.5171C2.9217 17.4597 4.33522 18.1705 5.87075 18.5844V12.3418L1.69531 16.5171Z" fill="#0052B4"/>
<path d="M5.8707 -4.58789C4.33517 -4.17398 2.92166 -3.46322 1.69531 -2.52066L5.8707 1.65473V-4.58789Z" fill="#0052B4"/>
<path d="M12.1309 18.5844C13.6664 18.1705 15.0799 17.4597 16.3062 16.5172L12.1309 12.3418V18.5844Z" fill="#0052B4"/>
<path d="M14.3438 10.1289L18.5191 14.3043C19.4617 13.078 20.1725 11.6644 20.5864 10.1289H14.3438Z" fill="#0052B4"/>
<path d="M20.8984 5.4348H10.5653H10.5653V-4.89842C10.0529 -4.96512 9.53048 -5 9 -5C8.46942 -5 7.94714 -4.96512 7.4348 -4.89842V5.4347V5.43475H-2.89842C-2.96512 5.94714 -3 6.46952 -3 7C-3 7.53058 -2.96512 8.05286 -2.89842 8.5652H7.4347H7.43475V18.8984C7.94714 18.9651 8.46942 19 9 19C9.53048 19 10.0529 18.9652 10.5652 18.8984V8.5653V8.56525H20.8984C20.9651 8.05286 21 7.53058 21 7C21 6.46952 20.9651 5.94714 20.8984 5.4348Z" fill="#D80027"/>
<path d="M12.1309 10.1309L17.4857 15.4857C17.732 15.2395 17.9669 14.9821 18.191 14.7153L13.6066 10.1309H12.1309V10.1309Z" fill="#D80027"/>
<path d="M5.87048 10.1309H5.87039L0.515625 15.4856C0.761812 15.7319 1.0192 15.9668 1.28602 16.191L5.87048 11.6064V10.1309Z" fill="#D80027"/>
<path d="M5.86878 3.86862V3.86853L0.513969 -1.48633C0.267688 -1.24014 0.03275 -0.98275 -0.191406 -0.715938L4.39311 3.86858H5.86878V3.86862Z" fill="#D80027"/>
<path d="M12.1309 3.87078L17.4857 -1.48412C17.2395 -1.73041 16.9821 -1.96534 16.7153 -2.18945L12.1309 2.39506V3.87078Z" fill="#D80027"/>
</g>
<defs>
<clipPath id="clip0_17_7580">
<rect width="18" height="14" rx="4" fill="white"/>
</clipPath>
</defs>
</svg>
