<svg width="20" height="20" viewBox="0 0 20 20" fill="none" xmlns="http://www.w3.org/2000/svg">
<path d="M15.8333 2.5C16.7538 2.5 17.5 3.23597 17.5 4.14383L17.5 6.94994C17.5 7.8578 16.7538 8.59377 15.8333 8.59377H13.3333C12.4129 8.59377 11.6667 7.8578 11.6667 6.94994L11.6667 4.14383C11.6667 3.23597 12.4129 2.5 13.3333 2.5L15.8333 2.5Z" stroke="#B2B2CB" stroke-width="1.5" stroke-linecap="round" stroke-linejoin="round"/>
<path d="M4.16667 2.5C3.24619 2.5 2.5 3.23597 2.5 4.14383L2.50001 6.94994C2.50001 7.8578 3.2462 8.59377 4.16667 8.59377H6.66667C7.58715 8.59377 8.33334 7.8578 8.33334 6.94994L8.33333 4.14383C8.33333 3.23597 7.58714 2.5 6.66667 2.5L4.16667 2.5Z" stroke="#B2B2CB" stroke-width="1.5" stroke-linecap="round" stroke-linejoin="round"/>
<path d="M15.8333 11.4063C16.7538 11.4063 17.5 12.1422 17.5 13.0501V15.8562C17.5 16.764 16.7538 17.5 15.8333 17.5H13.3333C12.4129 17.5 11.6667 16.764 11.6667 15.8562L11.6667 13.0501C11.6667 12.1422 12.4129 11.4063 13.3333 11.4063H15.8333Z" stroke="#B2B2CB" stroke-width="1.5" stroke-linecap="round" stroke-linejoin="round"/>
<path d="M4.16667 11.4063C3.2462 11.4063 2.50001 12.1422 2.50001 13.0501L2.50001 15.8562C2.50001 16.764 3.2462 17.5 4.16668 17.5H6.66667C7.58715 17.5 8.33334 16.764 8.33334 15.8562L8.33334 13.0501C8.33334 12.1422 7.58715 11.4063 6.66667 11.4063H4.16667Z" stroke="#B2B2CB" stroke-width="1.5" stroke-linecap="round" stroke-linejoin="round"/>
</svg>
