<svg width="28" height="28" viewBox="0 0 28 28" fill="none" xmlns="http://www.w3.org/2000/svg">
<rect width="28" height="28" rx="8" fill="#E6E6ED"/>
<path d="M9.59961 18.7996C9.90706 18.4553 11.347 16.8707 11.7689 16.8707H16.2305C16.842 16.8707 18.0903 18.1842 18.3996 18.6472M20.3996 13.9996C20.3996 17.5342 17.5342 20.3996 13.9996 20.3996C10.465 20.3996 7.59961 17.5342 7.59961 13.9996C7.59961 10.465 10.465 7.59961 13.9996 7.59961C17.5342 7.59961 20.3996 10.465 20.3996 13.9996ZM16.2922 11.8182C16.2922 10.5972 15.2614 9.59961 13.9998 9.59961C12.7382 9.59961 11.7074 10.5972 11.7074 11.8182C11.7074 13.0393 12.7382 14.0369 13.9998 14.0369C15.2614 14.0369 16.2922 13.0393 16.2922 11.8182Z" stroke="#0D0D1E" stroke-width="1.5"/>
</svg>
