<svg width="40" height="40" viewBox="0 0 40 40" fill="none" xmlns="http://www.w3.org/2000/svg">
<rect x="0.5" y="0.5" width="39" height="39" rx="11.5" fill="white"/>
<path d="M16.4583 24.3501V24.2857M20.2083 24.3501V24.2857M20.2083 20.8571V20.7927M23.5417 20.8571V20.7927M13.9583 17.4285H25.625M15.4663 12.5V13.7859M23.9583 12.5V13.7857M23.9583 13.7857H15.625C14.2443 13.7857 13.125 14.937 13.125 16.3571V24.9286C13.125 26.3487 14.2443 27.5 15.625 27.5H23.9583C25.339 27.5 26.4583 26.3487 26.4583 24.9286L26.4583 16.3571C26.4583 14.937 25.339 13.7857 23.9583 13.7857Z" stroke="#22B762" stroke-width="1.5" stroke-linecap="round" stroke-linejoin="round"/>
<rect x="0.5" y="0.5" width="39" height="39" rx="11.5" stroke="#22B762"/>
</svg>
