<svg width="40" height="40" viewBox="0 0 40 40" fill="none" xmlns="http://www.w3.org/2000/svg">
<rect x="0.5" y="0.5" width="39" height="39" rx="9.5" fill="white"/>
<path d="M27.0326 16.4577H12.9661M22.0827 19.5827C20.3538 19.5827 17.916 19.5827 17.916 19.5827M27.0827 16.8757V25.3118C27.0827 26.2899 26.2899 27.0827 25.3118 27.0827H14.6868C13.7088 27.0827 12.916 26.2899 12.916 25.3118V16.8757C12.916 16.6008 12.98 16.3297 13.103 16.0838L14.3198 13.6502C14.5447 13.2002 15.0046 12.916 15.5077 12.916H24.491C24.9941 12.916 25.454 13.2002 25.6789 13.6502L26.8957 16.0838C27.0187 16.3297 27.0827 16.6008 27.0827 16.8757Z" stroke="#0D0D1E" stroke-width="1.5" stroke-linecap="round" stroke-linejoin="round"/>
<rect x="0.5" y="0.5" width="39" height="39" rx="9.5" stroke="#D1D1E2"/>
</svg>
