<svg width="28" height="28" viewBox="0 0 28 28" fill="none" xmlns="http://www.w3.org/2000/svg">
<rect width="28" height="28" rx="8" fill="#E6E6ED"/>
<path d="M16.3458 16.2115C16.7388 16.3425 17.1635 16.1301 17.2945 15.7372C17.4255 15.3442 17.2131 14.9195 16.8202 14.7885L16.3458 16.2115ZM14.333 14.75H13.583C13.583 15.0728 13.7896 15.3594 14.0958 15.4615L14.333 14.75ZM15.083 11.6139C15.083 11.1997 14.7472 10.8639 14.333 10.8639C13.9188 10.8639 13.583 11.1997 13.583 11.6139H15.083ZM16.8202 14.7885L14.5702 14.0385L14.0958 15.4615L16.3458 16.2115L16.8202 14.7885ZM15.083 14.75V11.6139H13.583V14.75H15.083ZM19.583 14C19.583 16.8995 17.2325 19.25 14.333 19.25V20.75C18.0609 20.75 21.083 17.7279 21.083 14H19.583ZM14.333 19.25C11.4335 19.25 9.08301 16.8995 9.08301 14H7.58301C7.58301 17.7279 10.6051 20.75 14.333 20.75V19.25ZM9.08301 14C9.08301 11.1005 11.4335 8.75 14.333 8.75V7.25C10.6051 7.25 7.58301 10.2721 7.58301 14H9.08301ZM14.333 8.75C17.2325 8.75 19.583 11.1005 19.583 14H21.083C21.083 10.2721 18.0609 7.25 14.333 7.25V8.75Z" fill="#0D0D1E"/>
</svg>
