<svg width="28" height="28" viewBox="0 0 28 28" fill="none" xmlns="http://www.w3.org/2000/svg">
<rect width="28" height="28" rx="8" fill="#E6E6ED"/>
<path d="M8 15.5695H10.7853M8 15.5695L10.7464 15.5688C10.7595 15.5688 10.7724 15.569 10.7853 15.5695M8 15.5695L8 18.1596C8 18.5131 8.35817 18.7996 8.8 18.7996H10.7467C11.1885 18.7996 11.5467 18.5131 11.5467 18.1596V16.2088C11.5467 15.8657 11.2092 15.5856 10.7853 15.5695M8 15.5695L8 12.3384M10.7853 15.5695H14.5173C14.9592 15.5695 15.3173 15.283 15.3173 14.9295V12.9784C15.3173 12.625 14.9592 12.3384 14.5173 12.3384M8 12.3384H14.5173M8 12.3384L8 9.83961C8 9.48615 8.35817 9.19961 8.8 9.19961L19.2 9.19961C19.6418 9.19961 20 9.48615 20 9.83961V11.6984C20 12.0519 19.6418 12.3384 19.2 12.3384L14.5173 12.3384M8 20.3996V7.59961" stroke="#0D0D1E" stroke-width="1.5" stroke-linecap="round" stroke-linejoin="round"/>
</svg>
