<svg width="136" height="136" viewBox="0 0 136 136" fill="none" xmlns="http://www.w3.org/2000/svg">
<path d="M68 134C35.2897 134 0 113.495 0 68.5C0 23.5054 35.2897 3 68 3C86.1724 3 102.938 8.97585 115.366 19.873C128.848 31.8247 136 48.6977 136 68.5C136 88.3023 128.848 105.058 115.366 117.01C102.938 127.907 86.0552 134 68 134Z" fill="url(#paint0_radial_1_5600)"/>
<path d="M124.147 29.5625C130.396 39.6394 133.655 51.638 133.655 64.9841C133.655 84.7864 126.503 101.542 113.02 113.494C100.593 124.391 83.71 130.484 65.6549 130.484C44.4811 130.484 22.2756 121.872 9.16797 103.604C21.7831 124.297 45.5128 133.999 67.9997 133.999C86.0549 133.999 102.938 127.906 115.365 117.009C128.848 105.057 136 88.3016 136 68.4993C136 53.5714 131.931 40.3073 124.147 29.5625Z" fill="#EB8F00"/>
<path d="M97.7791 97.911H39.1584C36.5674 97.911 34.4688 95.8136 34.4688 93.2241C34.4688 90.6345 36.5674 88.5371 39.1584 88.5371H97.7791C100.37 88.5371 102.469 90.6345 102.469 93.2241C102.469 95.8136 100.37 97.911 97.7791 97.911Z" fill="#422B0D"/>
<path d="M45.8051 48.627C40.8927 48.627 36.4258 52.7749 36.4258 59.6647C36.4258 66.5545 40.8927 70.6907 45.8051 70.6907C50.7175 70.6907 55.1844 66.5428 55.1844 59.6647C55.1844 52.7866 50.7175 48.627 45.8051 48.627Z" fill="#422B0D"/>
<path d="M45.3483 53.2327C43.6835 52.4359 41.6787 53.1389 40.8697 54.8028C40.2483 56.1034 40.5297 57.6618 41.5732 58.6695C43.238 59.4663 45.2428 58.7633 46.0518 57.0994C46.6732 55.7988 46.3918 54.2404 45.3483 53.2327Z" fill="#896024"/>
<path d="M90.7445 48.627C85.8321 48.627 81.3652 52.7749 81.3652 59.6647C81.3652 66.5545 85.8321 70.6907 90.7445 70.6907C95.657 70.6907 100.124 66.5428 100.124 59.6647C100.124 52.7866 95.6804 48.627 90.7445 48.627Z" fill="#422B0D"/>
<path d="M90.3112 53.2327C88.6464 52.4359 86.6416 53.1389 85.8326 54.8028C85.2112 56.1034 85.4926 57.6618 86.5361 58.6695C88.2009 59.4663 90.2057 58.7633 91.0147 57.0994C91.6361 55.7988 91.3547 54.2404 90.3112 53.2327Z" fill="#896024"/>
<defs>
<radialGradient id="paint0_radial_1_5600" cx="0" cy="0" r="1" gradientUnits="userSpaceOnUse" gradientTransform="translate(68 68.4999) scale(66.7803 66.7417)">
<stop offset="0.5" stop-color="#FDE030"/>
<stop offset="0.92" stop-color="#F7C02B"/>
<stop offset="1" stop-color="#F4A223"/>
</radialGradient>
</defs>
</svg>
