<svg width="19" height="18" viewBox="0 0 19 18" fill="none" xmlns="http://www.w3.org/2000/svg">
<path fill-rule="evenodd" clip-rule="evenodd" d="M10.9252 3.2372C10.6046 1.92093 8.73138 1.92093 8.41074 3.2372C8.36287 3.43499 8.26898 3.61869 8.1367 3.77334C8.00443 3.92799 7.83751 4.04922 7.64952 4.12718C7.46154 4.20513 7.25781 4.2376 7.05491 4.22195C6.85201 4.2063 6.65567 4.14296 6.48187 4.03709C5.32421 3.3317 3.99948 4.65641 4.70488 5.81406C5.16052 6.56163 4.75635 7.53702 3.90582 7.74374C2.58869 8.06353 2.58869 9.93753 3.90582 10.2565C4.10367 10.3044 4.2874 10.3984 4.44205 10.5308C4.5967 10.6631 4.7179 10.8302 4.79578 11.0182C4.87367 11.2063 4.90603 11.4101 4.89023 11.6131C4.87443 11.816 4.81092 12.0124 4.70488 12.1862C3.99948 13.3438 5.32421 14.6685 6.48187 13.9631C6.65564 13.8571 6.85199 13.7936 7.05495 13.7778C7.25791 13.762 7.46172 13.7943 7.64981 13.8722C7.83789 13.9501 8.00492 14.0713 8.1373 14.2259C8.26968 14.3806 8.36365 14.5643 8.41159 14.7622C8.73138 16.0793 10.6054 16.0793 10.9244 14.7622C10.9724 14.5644 11.0665 14.3808 11.1989 14.2263C11.3313 14.0717 11.4983 13.9506 11.6864 13.8728C11.8744 13.7949 12.0781 13.7625 12.281 13.7782C12.4839 13.7939 12.6803 13.8573 12.8541 13.9631C14.0117 14.6685 15.3365 13.3438 14.6311 12.1862C14.5252 12.0123 14.4618 11.816 14.4461 11.6131C14.4304 11.4102 14.4628 11.2065 14.5407 11.0185C14.6186 10.8304 14.7397 10.6634 14.8942 10.531C15.0488 10.3986 15.2324 10.3046 15.4301 10.2565C16.7473 9.93668 16.7473 8.06268 15.4301 7.74374C15.2323 7.69581 15.0485 7.60183 14.8939 7.46946C14.7392 7.33708 14.618 7.17006 14.5402 6.98198C14.4623 6.79389 14.4299 6.59008 14.4457 6.38713C14.4615 6.18417 14.525 5.98782 14.6311 5.81406C15.3365 4.65641 14.0117 3.3317 12.8541 4.03709C12.6803 4.14314 12.4839 4.20664 12.281 4.22244C12.078 4.23824 11.8742 4.20588 11.6861 4.128C11.498 4.05012 11.331 3.92892 11.1986 3.77427C11.0663 3.61962 10.9723 3.43589 10.9244 3.23805L10.9252 3.2372Z" stroke="#20C39D" stroke-width="1.5"/>
<path d="M11.168 9C11.168 9.82843 10.4964 10.5 9.66797 10.5C8.83954 10.5 8.16797 9.82843 8.16797 9C8.16797 8.17157 8.83954 7.5 9.66797 7.5C10.4964 7.5 11.168 8.17157 11.168 9Z" stroke="#20C39D" stroke-width="1.5"/>
</svg>
