<svg width="18" height="18" viewBox="0 0 18 18" fill="none" xmlns="http://www.w3.org/2000/svg">
<path d="M6.59332 6.80361C7.24888 6.33625 8.0241 6.0914 8.8376 6.09057C9.6511 6.08974 10.4237 6.33514 11.0804 6.79902M4.84198 4.88081C6.00956 4.05113 7.39296 3.613 8.838 3.60938C10.2852 3.6079 11.6655 4.04535 12.8314 4.87264M1.81536 13.6999C1.81536 13.6999 1.82502 12.6252 1.80177 12.3362C1.78724 11.8888 1.93318 11.5247 2.26749 11.1904C2.29963 11.1583 2.33392 11.124 2.36821 11.094C3.0453 10.4981 3.88484 10.1548 4.54016 9.92288C6.33907 9.29593 8.23605 9.06279 10.1754 9.23207C11.7852 9.38028 13.0864 9.70435 14.2826 10.2533C15.0144 10.5865 15.5021 10.9285 15.8613 11.3521C16.0901 11.6237 16.2011 11.9276 16.2008 12.283L16.1993 13.743C16.1927 13.9464 16.1347 14.1113 16.0254 14.2206C15.8904 14.3556 15.6998 14.3836 15.5628 14.3837C15.5585 14.3837 15.5543 14.3837 15.55 14.3837C15.2973 14.3926 15.0469 14.3907 14.7814 14.3867C14.6466 14.3847 14.5095 14.3848 14.3704 14.3828L13.2015 14.384C12.7477 14.3845 12.5381 14.1749 12.5386 13.721C12.5387 13.5969 12.5367 13.4748 12.5389 13.3528C12.535 12.9889 12.5347 13.2714 12.5544 12.9182C12.5544 12.9096 12.5565 12.9032 12.5544 12.8968C12.5548 12.5285 12.3408 12.3832 12.1804 12.2999C12.1718 12.2956 12.1632 12.2913 12.1547 12.287C11.6347 12.0714 11.0739 11.9392 10.3355 11.8522L10.3312 11.8522C9.01258 11.7165 7.82225 11.7734 6.70021 12.0272C6.55675 12.0594 6.42183 12.1045 6.29334 12.1475C6.1777 12.1861 6.06848 12.2226 5.96784 12.2463C5.95499 12.2506 5.94 12.2527 5.92715 12.257C5.81793 12.2935 5.73225 12.345 5.66153 12.4157C5.48366 12.5936 5.48344 12.8162 5.48336 12.889L5.4825 13.7282C5.48235 13.8738 5.45431 14.0772 5.31931 14.2122C5.18644 14.3451 4.99374 14.371 4.8546 14.3647C4.85032 14.3647 4.85032 14.3647 4.84604 14.3647L2.48688 14.3671C2.04802 14.3697 1.81536 13.6999 1.81536 13.6999Z" stroke="#8B8BA9" stroke-width="1.5" stroke-linecap="round" stroke-linejoin="round"/>
</svg>
