<svg width="24" height="24" viewBox="0 0 24 24" fill="none" xmlns="http://www.w3.org/2000/svg">
<path d="M7.20039 11.9996C7.20039 13.3251 6.12587 14.3996 4.80039 14.3996C3.47491 14.3996 2.40039 13.3251 2.40039 11.9996C2.40039 10.6741 3.47491 9.59961 4.80039 9.59961C6.12587 9.59961 7.20039 10.6741 7.20039 11.9996Z" stroke="#59597B" stroke-width="1.5"/>
<path d="M14.4004 11.9996C14.4004 13.3251 13.3259 14.3996 12.0004 14.3996C10.6749 14.3996 9.60039 13.3251 9.60039 11.9996C9.60039 10.6741 10.6749 9.59961 12.0004 9.59961C13.3259 9.59961 14.4004 10.6741 14.4004 11.9996Z" stroke="#59597B" stroke-width="1.5"/>
<path d="M21.6004 11.9996C21.6004 13.3251 20.5259 14.3996 19.2004 14.3996C17.8749 14.3996 16.8004 13.3251 16.8004 11.9996C16.8004 10.6741 17.8749 9.59961 19.2004 9.59961C20.5259 9.59961 21.6004 10.6741 21.6004 11.9996Z" stroke="#59597B" stroke-width="1.5"/>
</svg>
