<svg width="19" height="18" viewBox="0 0 19 18" fill="none" xmlns="http://www.w3.org/2000/svg">
<path d="M4.55078 14.3998C4.89666 14.0124 6.51657 12.2298 6.99129 12.2298H12.0106C12.6985 12.2298 14.1028 13.7075 14.4508 14.2284M16.7008 8.9998C16.7008 12.9763 13.4772 16.1998 9.50078 16.1998C5.52433 16.1998 2.30078 12.9763 2.30078 8.9998C2.30078 5.02335 5.52433 1.7998 9.50078 1.7998C13.4772 1.7998 16.7008 5.02335 16.7008 8.9998ZM12.0799 6.54577C12.0799 5.17214 10.9203 4.0498 9.501 4.0498C8.08172 4.0498 6.92208 5.17214 6.92208 6.54577C6.92208 7.91941 8.08172 9.04174 9.501 9.04174C10.9203 9.04174 12.0799 7.91941 12.0799 6.54577Z" stroke="#20C49D" stroke-width="1.5"/>
</svg>
