<svg width="28" height="28" viewBox="0 0 28 28" fill="none" xmlns="http://www.w3.org/2000/svg">
<rect width="28" height="28" rx="8" fill="#E6E6ED"/>
<path fill-rule="evenodd" clip-rule="evenodd" d="M15.1175 8.87751C14.8325 7.7075 13.1675 7.7075 12.8825 8.87751C12.8399 9.05333 12.7565 9.21661 12.6389 9.35408C12.5213 9.49155 12.3729 9.59931 12.2058 9.6686C12.0387 9.7379 11.8576 9.76676 11.6773 9.75284C11.4969 9.73893 11.3224 9.68263 11.1679 9.58852C10.1389 8.96152 8.96134 10.139 9.58836 11.168C9.99337 11.8326 9.63411 12.6996 8.87809 12.8833C7.7073 13.1676 7.7073 14.8334 8.87809 15.1169C9.05395 15.1595 9.21727 15.243 9.35474 15.3607C9.49221 15.4783 9.59994 15.6268 9.66917 15.794C9.7384 15.9612 9.76716 16.1423 9.75312 16.3227C9.73908 16.5031 9.68263 16.6777 9.58836 16.8321C8.96134 17.8612 10.1389 19.0387 11.1679 18.4117C11.3224 18.3174 11.4969 18.2609 11.6773 18.2469C11.8577 18.2329 12.0389 18.2616 12.2061 18.3309C12.3733 18.4001 12.5217 18.5078 12.6394 18.6453C12.7571 18.7827 12.8406 18.9461 12.8832 19.1219C13.1675 20.2927 14.8333 20.2927 15.1168 19.1219C15.1595 18.9462 15.2432 18.783 15.3608 18.6456C15.4785 18.5082 15.627 18.4005 15.7941 18.3313C15.9613 18.2621 16.1424 18.2333 16.3227 18.2473C16.5031 18.2613 16.6776 18.3176 16.8321 18.4117C17.8611 19.0387 19.0387 17.8612 18.4116 16.8321C18.3175 16.6776 18.2612 16.5031 18.2473 16.3228C18.2333 16.1424 18.2621 15.9613 18.3313 15.7942C18.4005 15.6271 18.5082 15.4786 18.6456 15.3609C18.7829 15.2432 18.9461 15.1596 19.1219 15.1169C20.2927 14.8326 20.2927 13.1668 19.1219 12.8833C18.946 12.8407 18.7827 12.7572 18.6453 12.6395C18.5078 12.5219 18.4001 12.3734 18.3308 12.2062C18.2616 12.039 18.2328 11.8578 18.2469 11.6774C18.2609 11.497 18.3174 11.3225 18.4116 11.168C19.0387 10.139 17.8611 8.96152 16.8321 9.58852C16.6776 9.68279 16.5031 9.73924 16.3227 9.75328C16.1423 9.76732 15.9611 9.73856 15.7939 9.66933C15.6267 9.6001 15.4783 9.49237 15.3606 9.3549C15.2429 9.21744 15.1594 9.05413 15.1168 8.87826L15.1175 8.87751Z" stroke="#0D0D1E" stroke-width="1.5"/>
<path d="M15.3333 14C15.3333 14.7364 14.7364 15.3333 14 15.3333C13.2636 15.3333 12.6667 14.7364 12.6667 14C12.6667 13.2636 13.2636 12.6667 14 12.6667C14.7364 12.6667 15.3333 13.2636 15.3333 14Z" stroke="#0D0D1E" stroke-width="1.5"/>
</svg>
