<svg width="32" height="33" viewBox="0 0 32 33" fill="none" xmlns="http://www.w3.org/2000/svg">
<path d="M4.79289 25.5429C4.40237 25.9334 4.40237 26.5666 4.79289 26.9571C5.18342 27.3476 5.81658 27.3476 6.20711 26.9571L4.79289 25.5429ZM11.5 20.25L12.2071 19.5429C11.8166 19.1524 11.1834 19.1524 10.7929 19.5429L11.5 20.25ZM14.5 23.25L13.7929 23.9571C14.1834 24.3476 14.8166 24.3476 15.2071 23.9571L14.5 23.25ZM21.25 16.5L21.9571 15.7929C21.5666 15.4024 20.9334 15.4024 20.5429 15.7929L21.25 16.5ZM26.5429 23.2071C26.9334 23.5976 27.5666 23.5976 27.9571 23.2071C28.3476 22.8166 28.3476 22.1834 27.9571 21.7929L26.5429 23.2071ZM6.20711 26.9571L12.2071 20.9571L10.7929 19.5429L4.79289 25.5429L6.20711 26.9571ZM10.7929 20.9571L13.7929 23.9571L15.2071 22.5429L12.2071 19.5429L10.7929 20.9571ZM15.2071 23.9571L21.9571 17.2071L20.5429 15.7929L13.7929 22.5429L15.2071 23.9571ZM20.5429 17.2071L26.5429 23.2071L27.9571 21.7929L21.9571 15.7929L20.5429 17.2071ZM8.5 5.5H23.5V3.5H8.5V5.5ZM27 9V24H29V9H27ZM23.5 27.5H8.5V29.5H23.5V27.5ZM5 24V9H3V24H5ZM8.5 27.5C6.567 27.5 5 25.933 5 24H3C3 27.0376 5.46243 29.5 8.5 29.5V27.5ZM27 24C27 25.933 25.433 27.5 23.5 27.5V29.5C26.5376 29.5 29 27.0376 29 24H27ZM23.5 5.5C25.433 5.5 27 7.067 27 9H29C29 5.96243 26.5376 3.5 23.5 3.5V5.5ZM8.5 3.5C5.46243 3.5 3 5.96243 3 9H5C5 7.067 6.567 5.5 8.5 5.5V3.5ZM12 11.25C12 11.9404 11.4404 12.5 10.75 12.5V14.5C12.5449 14.5 14 13.0449 14 11.25H12ZM10.75 12.5C10.0596 12.5 9.5 11.9404 9.5 11.25H7.5C7.5 13.0449 8.95507 14.5 10.75 14.5V12.5ZM9.5 11.25C9.5 10.5596 10.0596 10 10.75 10V8C8.95507 8 7.5 9.45507 7.5 11.25H9.5ZM10.75 10C11.4404 10 12 10.5596 12 11.25H14C14 9.45507 12.5449 8 10.75 8V10Z" fill="#0D0D1E"/>
</svg>
